<?xml version="1.0" encoding="utf-8"?>
<!-- Generator: Adobe Illustrator 16.0.0, SVG Export Plug-In . SVG Version: 6.00 Build 0)  -->
<!DOCTYPE svg PUBLIC "-//W3C//DTD SVG 1.1//EN" "http://www.w3.org/Graphics/SVG/1.1/DTD/svg11.dtd">
<svg version="1.1" id="logo" xmlns="http://www.w3.org/2000/svg" xmlns:xlink="http://www.w3.org/1999/xlink" x="0px" y="0px"
	 width="500px" height="126.742px" viewBox="249.499 433.867 500 126.742" enable-background="new 249.499 433.867 500 126.742"
	 xml:space="preserve">
<g>
	<polygon fill="#FFFFFF" points="480.797,556.639 510.617,556.639 510.617,437.68 480.797,437.68 	"/>
	<path fill="#FFFFFF" d="M584.663,531.586c18.948,0,32.871-16.236,32.871-34.461c0-18.228-14-34.309-32.871-34.309
		c-18.95,0-32.948,16.081-32.948,34.309C551.715,515.35,565.713,531.586,584.663,531.586 M584.895,433.867
		c35.732,0,64.505,27.417,64.505,63.027c0,35.763-29.004,63.715-64.814,63.715c-35.81,0-64.813-27.568-64.813-63.255
		C519.771,461.743,549.163,433.867,584.895,433.867 M652.829,520.663l27.36-6.437c1.966,14.294,12.472,19.458,23.506,19.458
		c10.96,0,14.966-6.437,14.966-11.45c0-4.041-2.344-8.008-10.355-9.579l-16.703-3.218c-19.954-3.816-34.087-16.24-34.087-35.324
		c0-22.75,20.935-38.766,44.593-38.766c30.46,0,43.007,18.86,45.198,34.65l-26.832,7.483c-1.436-9.729-7.481-16.763-18.518-16.763
		c-9.523,0-14.058,6.287-14.058,11.076c0,3.966,1.89,8.532,8.994,9.878l17.384,3.293c22.75,4.341,35.222,18.111,35.222,35.997
		c0,19.459-16.931,38.167-45.954,38.167C673.161,559.129,656.835,543.339,652.829,520.663"/>
	<polygon fill="#0A99E0" points="281.591,556.639 249.499,556.639 302.565,437.68 334.811,437.68 	"/>
	<polygon fill="#FFFFFF" points="433.58,495.811 473.44,437.606 436.97,437.606 415.472,472.841 394.471,437.606 357.507,437.606 
		397.888,495.811 375.418,528.43 334.938,437.676 302.689,437.676 355.912,556.639 390.33,556.639 415.472,518.928 440.317,556.639 
		475.112,556.639 	"/>
</g>
</svg>
