<?xml version="1.0" encoding="utf-8"?>
<!-- Generator: Adobe Illustrator 16.0.0, SVG Export Plug-In . SVG Version: 6.00 Build 0)  -->
<!DOCTYPE svg PUBLIC "-//W3C//DTD SVG 1.1//EN" "http://www.w3.org/Graphics/SVG/1.1/DTD/svg11.dtd">
<svg version="1.1" id="Layer_1" xmlns="http://www.w3.org/2000/svg" xmlns:xlink="http://www.w3.org/1999/xlink" x="0px" y="0px"
	 width="500px" height="97.584px" viewBox="1025.818 200.208 500 97.584" enable-background="new 1025.818 200.208 500 97.584"
	 xml:space="preserve">
<title>logo</title>
<desc>Created with Sketch.</desc>
<g id="Page-1">
	<g id="logo">
		<path id="Polygon-2-Copy-6" fill="#00435B" d="M1093.052,260.848l-2.09,3.629c-0.629,1.094-1.795,1.768-3.057,1.768h-16.009
			c-1.261,0-2.427-0.674-3.056-1.768l-2.09-3.629H1093.052z M1098.902,250.689l-3.685,6.398h-30.634l-3.685-6.398H1098.902z
			 M1095.353,240.755l3.556,6.174h-38.015l3.555-6.174H1095.353z M1087.905,231.364c1.262,0,2.427,0.674,3.057,1.767l2.225,3.863
			h-26.573l2.226-3.863c0.629-1.093,1.795-1.767,3.056-1.767H1087.905z"/>
		<g id="Group-Copy-3" transform="translate(193.000000, 289.000000)">
		</g>
		<path id="Combined-Shape-Copy-2" fill="#002B3B" d="M1048.597,229.68c-1.774-8.599-2.154-15.195-1.008-19.984
			c0.682-2.849,1.928-5.172,3.823-6.849c2.001-1.77,4.531-2.638,7.374-2.638c4.689,0,9.619,2.138,14.887,6.201
			c2.149,1.657,4.379,3.654,6.695,5.993c0.185-0.238,0.393-0.461,0.625-0.668c6.548-5.835,12.061-9.461,16.776-10.859
			c2.804-0.831,5.437-0.91,7.833-0.104c2.531,0.852,4.547,2.612,5.969,5.077c2.348,4.069,2.967,9.416,2.091,16.018
			c-0.356,2.691-0.967,5.622-1.828,8.798c0.325,0.04,0.651,0.111,0.974,0.218c8.308,2.753,14.191,5.714,17.753,9.098
			c2.119,2.013,3.503,4.254,4.003,6.735c0.528,2.619,0.014,5.246-1.407,7.708c-2.343,4.063-6.651,7.269-12.79,9.807
			c-2.464,1.019-5.253,1.942-8.369,2.772c0.142,0.32,0.252,0.661,0.326,1.02c1.773,8.599,2.154,15.194,1.008,19.984
			c-0.682,2.848-1.928,5.172-3.824,6.849c-2.001,1.77-4.531,2.638-7.374,2.638c-4.689,0-9.619-2.138-14.887-6.2
			c-2.172-1.675-4.426-3.697-6.769-6.068c-0.241,0.377-0.537,0.728-0.887,1.04c-6.548,5.835-12.061,9.461-16.776,10.858
			c-2.804,0.831-5.436,0.911-7.833,0.104c-2.53-0.852-4.546-2.611-5.969-5.077c-2.348-4.068-2.967-9.416-2.091-16.018
			c0.37-2.788,1.011-5.834,1.922-9.144c-0.356-0.036-0.714-0.111-1.068-0.229c-8.308-2.753-14.191-5.714-17.753-9.098
			c-2.119-2.013-3.503-4.255-4.003-6.735c-0.528-2.619-0.013-5.245,1.408-7.709c2.343-4.063,6.652-7.268,12.79-9.806
			c2.538-1.05,5.42-1.998,8.648-2.847C1048.751,230.285,1048.66,229.989,1048.597,229.68z"/>
		<path id="Path-3-Copy-24" fill="#FF4154" d="M1069.934,226.941c4.307-0.343,8.746-0.494,13.317-0.454l0,0
			c0.866,0.007,1.574-0.688,1.582-1.554c0.003-0.365-0.121-0.719-0.351-1.002c-10.405-12.811-18.972-19.216-25.702-19.216
			c-6.948,0-8.93,7.659-5.947,22.977l0,0c0.164,0.839,0.97,1.393,1.813,1.244C1059.957,227.994,1065.053,227.329,1069.934,226.941z"
			/>
		<path id="Path-3-Copy-25" fill="#FF4154" d="M1094.109,229.049c2.487,3.584,4.875,7.379,7.161,11.386l0,0
			c0.429,0.752,1.387,1.014,2.139,0.584c0.315-0.18,0.559-0.464,0.688-0.803c5.886-15.438,7.123-26.084,3.711-31.939
			c-3.521-6.042-11.191-3.953-23.013,6.268l0,0c-0.65,0.562-0.727,1.542-0.172,2.198
			C1088.135,220.896,1091.298,224.998,1094.109,229.049z"/>
		<path id="Path-3-Copy-26" fill="#FF4154" d="M1104.548,250.616c-1.861,3.912-3.954,7.844-6.277,11.796
			c-0.438,0.746-0.189,1.707,0.557,2.146c0.316,0.186,0.687,0.255,1.049,0.195c16.219-2.667,26.014-6.923,29.382-12.769
			c3.479-6.038-2.116-11.572-16.786-16.602l0,0c-0.809-0.277-1.689,0.144-1.982,0.947
			C1108.641,241.417,1106.659,246.179,1104.548,250.616z"/>
		<path id="Path-3-Copy-27" fill="#FF4154" d="M1091.24,270.863c-4.307,0.343-8.746,0.494-13.317,0.454l0,0
			c-0.866-0.008-1.574,0.688-1.581,1.554c-0.003,0.364,0.121,0.719,0.351,1.002c10.404,12.811,18.972,19.217,25.702,19.217
			c6.948,0,8.93-7.659,5.947-22.978l0,0c-0.164-0.84-0.97-1.394-1.813-1.244C1101.217,269.81,1096.12,270.475,1091.24,270.863z"/>
		<path id="Path-3-Copy-28" fill="#FF4154" d="M1066.476,268.95c-2.487-3.584-4.875-7.379-7.162-11.386l0,0
			c-0.429-0.752-1.386-1.014-2.138-0.584c-0.315,0.18-0.559,0.464-0.688,0.803c-5.885,15.438-7.122,26.084-3.71,31.938
			c3.521,6.042,11.191,3.953,23.013-6.268l0,0c0.65-0.562,0.727-1.542,0.172-2.198
			C1072.45,277.104,1069.288,273.003,1066.476,268.95z"/>
		<path id="Path-3-Copy-29" fill="#FF4154" d="M1056.037,246.796c1.861-3.912,3.954-7.844,6.277-11.796
			c0.439-0.746,0.189-1.707-0.557-2.146c-0.316-0.186-0.687-0.255-1.049-0.196c-16.219,2.667-26.014,6.923-29.383,12.77
			c-3.479,6.038,2.116,11.572,16.787,16.602l0,0c0.808,0.277,1.689-0.145,1.982-0.947
			C1051.945,255.995,1053.926,251.232,1056.037,246.796z"/>
		<g id="Emblem" transform="translate(175.000000, 160.000000)">
			<path id="Polygon-2" fill="#FFD94C" d="M898.183,71.56h13.438c1.966,0,3.781,1.051,4.759,2.756l6.748,11.757
				c0.971,1.691,0.971,3.771,0,5.462l-6.748,11.757c-0.978,1.705-2.793,2.756-4.759,2.756h-13.438c-1.965,0-3.78-1.051-4.759-2.756
				l-6.748-11.757c-0.971-1.691-0.971-3.771,0-5.462l6.748-11.757C894.403,72.611,896.218,71.56,898.183,71.56z M909.573,75.109
				c1.966,0,3.782,1.052,4.76,2.758l4.705,8.208c0.969,1.69,0.969,3.767,0,5.457l-4.705,8.209c-0.978,1.706-2.794,2.758-4.76,2.758
				h-9.342c-1.967,0-3.782-1.052-4.76-2.758l-4.706-8.209c-0.968-1.689-0.968-3.767,0-5.457l4.706-8.208
				c0.978-1.706,2.793-2.758,4.76-2.758H909.573z M907.366,78.99h-4.927c-1.964,0-3.779,1.05-4.757,2.753l0,0l-2.486,4.328
				c-0.973,1.692-0.973,3.774,0,5.466l0,0l2.486,4.328c0.979,1.703,2.793,2.753,4.757,2.753l0,0h4.927
				c1.964,0,3.779-1.05,4.757-2.753l0,0l2.486-4.328c0.973-1.692,0.973-3.774,0-5.466l0,0l-2.486-4.328
				C911.145,80.04,909.33,78.99,907.366,78.99L907.366,78.99z M905.24,82.705c1.963,0,3.776,1.048,4.755,2.75l0.353,0.612
				c0.976,1.694,0.976,3.78,0,5.474l-0.353,0.612c-0.979,1.701-2.792,2.75-4.755,2.75h-0.676c-1.963,0-3.776-1.049-4.755-2.75
				l-0.353-0.612c-0.975-1.694-0.975-3.78,0-5.474l0.353-0.612c0.979-1.701,2.792-2.75,4.755-2.75H905.24z M904.903,86.364
				c-0.874,0-1.68,0.465-2.116,1.22c-0.436,0.755-0.436,1.685,0,2.439c0.436,0.755,1.242,1.221,2.114,1.221l0,0
				c0.874,0,1.679-0.466,2.115-1.221c0.437-0.754,0.437-1.685,0-2.439C906.581,86.83,905.775,86.364,904.903,86.364L904.903,86.364z
				 M885.109,88.804h4.393"/>
		</g>
		<path id="ReactQuery" fill="#FFFFFF" d="M1166.376,274.474v-17.956h9.814l9.232,17.956h12.359l-9.523-19.628
			c2.859-1.163,5.113-3.175,6.761-6.034c1.647-2.86,2.472-5.792,2.472-8.797c0-4.847-1.369-8.796-4.107-11.85
			c-2.739-3.054-7.161-4.58-13.268-4.58l0,0h-24.791v50.889H1166.376z M1180.262,246.049h-13.886v-11.995h13.886
			c2.035,0,3.501,0.569,4.398,1.708c0.896,1.139,1.345,2.557,1.345,4.253C1186.005,244.038,1184.09,246.049,1180.262,246.049
			L1180.262,246.049z M1214.323,275.347c5.913,0,10.735-2.254,14.467-6.762l0,0l-6.106-6.106c-2.181,2.617-4.968,3.926-8.36,3.926
			c-2.084,0-3.804-0.569-5.162-1.708c-1.357-1.14-2.084-2.872-2.181-5.198l0,0h23.772c0.193-1.26,0.291-3.078,0.291-5.452
			c0-5.719-1.551-10.081-4.653-13.086c-3.102-3.005-7.125-4.507-12.068-4.507c-5.428,0-9.729,1.745-12.904,5.234
			c-3.175,3.489-4.762,8.214-4.762,14.176c0,6.106,1.575,10.881,4.725,14.321C1204.533,273.626,1208.846,275.347,1214.323,275.347z
			 M1220.938,251.574h-13.886c0.242-1.938,0.969-3.454,2.181-4.544c1.211-1.091,2.762-1.636,4.653-1.636
			C1218.055,245.395,1220.405,247.454,1220.938,251.574L1220.938,251.574z M1246.058,275.347c3.926,0,7.003-1.212,9.233-3.636l0,0
			v2.763h10.468v-23.481c0-9.693-5.258-14.54-15.775-14.54c-6.058,0-11.365,1.551-15.921,4.653l0,0l3.271,8.069
			c3.926-2.617,7.899-3.926,11.922-3.926c1.89,0,3.369,0.448,4.435,1.345c1.066,0.896,1.6,2.193,1.6,3.889l0,0v2.035
			c-1.939-0.872-4.653-1.309-8.142-1.309c-4.023,0-7.537,1.03-10.542,3.09s-4.507,5.004-4.507,8.833c0,3.926,1.296,6.942,3.89,9.051
			C1238.582,274.292,1241.938,275.347,1246.058,275.347z M1248.093,266.477c-3.78,0-5.67-1.09-5.67-3.271
			c0-2.375,2.181-3.563,6.543-3.563c2.278,0,4.386,0.291,6.325,0.872l0,0v3.344C1253.109,265.604,1250.71,266.477,1248.093,266.477z
			 M1286.008,275.347c8.433,0,13.885-4.192,16.356-12.577l0,0l-10.104-2.908c-1.115,3.587-3.199,5.38-6.252,5.38
			c-1.939,0-3.538-0.86-4.799-2.581c-1.26-1.721-1.89-3.962-1.89-6.725s0.642-5.016,1.927-6.761c1.284-1.745,2.92-2.617,4.907-2.617
			c2.859,0,4.895,1.6,6.106,4.798l0,0l10.032-3.271c-2.423-7.754-7.852-11.632-16.284-11.632c-5.234,0-9.439,1.757-12.613,5.271
			c-3.175,3.514-4.762,8.251-4.762,14.212c0,6.059,1.575,10.809,4.725,14.249C1276.508,273.626,1280.725,275.347,1286.008,275.347z
			 M1316.942,275.347c3.345,0,6.155-0.558,8.434-1.673l0,0l1.163-8.869c-2.133,0.97-4.265,1.454-6.397,1.454
			c-0.581,0-1.078-0.182-1.49-0.545s-0.618-0.885-0.618-1.563l0,0v-17.593h8.069v-9.233h-8.069v-15.339l-10.469,5.017v10.323h-5.089
			v9.233h5.089v18.61C1307.564,271.953,1310.69,275.347,1316.942,275.347z M1374.597,280.362l8.143-5.234l-3.926-5.743
			c4.798-4.992,7.197-11.777,7.197-20.355c0-3.295-0.425-6.446-1.272-9.451s-2.12-5.804-3.816-8.397
			c-1.696-2.593-4.047-4.652-7.052-6.179c-3.005-1.526-6.471-2.29-10.396-2.29c-3.198,0-6.095,0.509-8.688,1.527
			c-2.593,1.018-4.737,2.387-6.434,4.107s-3.114,3.72-4.253,5.998s-1.963,4.641-2.472,7.088c-0.509,2.448-0.763,4.98-0.763,7.597
			s0.254,5.149,0.763,7.597c0.509,2.448,1.333,4.811,2.472,7.089c1.139,2.277,2.557,4.276,4.253,5.997s3.841,3.09,6.434,4.107
			c2.593,1.019,5.489,1.527,8.688,1.527c2.424,0,4.774-0.315,7.052-0.945l0,0L1374.597,280.362z M1363.474,264.659
			c-1.987,0-3.731-0.472-5.234-1.417c-1.502-0.945-2.665-2.205-3.489-3.78s-1.43-3.235-1.817-4.98
			c-0.388-1.744-0.581-3.562-0.581-5.452c0-2.52,0.314-4.907,0.944-7.161c0.63-2.254,1.83-4.241,3.599-5.961
			c1.77-1.72,3.962-2.581,6.579-2.581s4.799,0.836,6.543,2.508c1.745,1.672,2.933,3.635,3.563,5.889s0.945,4.689,0.945,7.306
			c0,4.266-0.776,7.706-2.327,10.323l0,0l-4.07-6.106l-8.215,5.307l4.144,6.034l0,0h-0.363L1363.474,264.659z M1401.97,275.347
			c4.459,0,7.852-1.43,10.178-4.29l0,0v3.417h10.541v-37.149h-10.541v19.484c0,2.859-0.521,4.968-1.563,6.324
			c-1.041,1.357-2.677,2.035-4.906,2.035s-3.78-0.678-4.653-2.035c-0.872-1.356-1.309-3.514-1.309-6.47l0,0v-19.338h-10.541v24.136
			c0,2.521,0.399,4.726,1.2,6.615c0.799,1.891,1.854,3.345,3.162,4.362s2.665,1.757,4.07,2.217
			C1399.014,275.116,1400.467,275.347,1401.97,275.347z M1443.955,275.347c5.913,0,10.735-2.254,14.467-6.762l0,0l-6.106-6.106
			c-2.181,2.617-4.968,3.926-8.36,3.926c-2.084,0-3.805-0.569-5.161-1.708c-1.357-1.14-2.084-2.872-2.182-5.198l0,0h23.772
			c0.194-1.26,0.291-3.078,0.291-5.452c0-5.719-1.551-10.081-4.652-13.086s-7.125-4.507-12.068-4.507
			c-5.428,0-9.729,1.745-12.904,5.234c-3.174,3.489-4.762,8.214-4.762,14.176c0,6.106,1.575,10.881,4.726,14.321
			C1434.165,273.626,1438.479,275.347,1443.955,275.347z M1450.57,251.574h-13.885c0.242-1.938,0.969-3.454,2.181-4.544
			c1.212-1.091,2.763-1.636,4.653-1.636C1447.688,245.395,1450.038,247.454,1450.57,251.574L1450.57,251.574z M1474.454,274.474
			v-20.138c0-5.137,2.133-7.706,6.397-7.706c2.375,0,4.58,0.848,6.616,2.544l0,0l1.381-9.596c-1.987-2.084-4.435-3.126-7.343-3.126
			c-1.696,0-3.174,0.46-4.435,1.381c-1.26,0.921-2.133,1.866-2.617,2.835l0,0v-3.344h-10.541v37.149H1474.454z M1506.044,288.577
			l19.774-51.252h-10.833l-7.487,19.847c-0.533,1.454-0.921,2.617-1.164,3.489c-0.242-0.872-0.629-2.035-1.162-3.489l0,0
			l-7.561-19.847h-10.905l14.03,36.712l-5.598,14.54H1506.044z"/>
	</g>
</g>
</svg>
